<svg xmlns="http://www.w3.org/2000/svg" enable-background="new 0 0 64 64" viewBox="0 0 64 64"><polyline fill="#f4f8f8" points="36.995 62.5 9.495 62.5 9.495 17.5 36.495 17.5 36.495 32"/><polygon fill="#dbe7f6" points="15.505 38.5 15.505 41.5 12.505 41.5 12.495 38.5"/><polygon fill="#b4cbea" points="15.505 38.5 15.505 41.5 12.505 41.5 12.495 38.5"/><polyline fill="#dbe7f6" points="36.505 31.5 36.505 29.5 54.505 29.5 54.505 62.5 36.505 62.5 36.505 47.5"/><polygon fill="#b4cbea" points="36.505 47.5 36.505 62.5 54.505 62.5 54.505 29.5"/><polygon fill="#dbe7f6" points="36.495 17.5 9.495 44.5 9.495 62.5 36.995 62.5 36.495 32"/><polygon fill="#dbe7f6" points="15.505 20.5 15.505 23.5 12.505 23.5 12.495 20.5"/><polygon fill="#dbe7f6" points="21.505 20.5 21.505 23.5 18.505 23.5 18.495 20.5"/><polygon fill="#dbe7f6" points="27.505 20.5 27.505 23.5 24.505 23.5 24.495 20.5"/><polygon fill="#dbe7f6" points="33.505 20.5 33.505 23.5 30.505 23.5 30.495 20.5"/><polygon fill="#dbe7f6" points="15.505 26.5 15.505 29.5 12.505 29.5 12.495 26.5"/><polygon fill="#dbe7f6" points="21.505 26.5 21.505 29.5 18.505 29.5 18.495 26.5"/><polygon fill="#dbe7f6" points="27.505 26.5 27.505 29.5 24.505 29.5 24.495 26.5"/><polygon fill="#b4cbea" points="24.505 29.5 27.505 29.5 27.505 26.5 27.495 26.5 24.505 29.49"/><polygon fill="#b4cbea" points="33.505 26.5 33.505 29.5 30.505 29.5 30.495 26.5"/><polygon fill="#dbe7f6" points="15.505 32.5 15.505 35.5 12.505 35.5 12.495 32.5"/><polygon fill="#b4cbea" points="12.505 41.5 15.505 41.5 15.505 38.5 15.495 38.5 12.505 41.49"/><polygon fill="#dbe7f6" points="21.505 32.5 21.505 35.5 18.505 35.5 18.495 32.5"/><polygon fill="#b4cbea" points="18.505 35.5 21.505 35.5 21.505 32.5 21.495 32.5 18.505 35.49"/><polygon fill="#b4cbea" points="27.505 32.5 27.505 35.5 24.505 35.5 24.495 32.5"/><polygon fill="#b4cbea" points="33.505 32.5 33.505 35.5 30.505 35.5 30.495 32.5"/><polygon fill="#b4cbea" points="21.505 38.5 21.505 41.5 18.505 41.5 18.495 38.5"/><polygon fill="#b4cbea" points="27.505 38.5 27.505 41.5 24.505 41.5 24.495 38.5"/><polygon fill="#b4cbea" points="33.505 38.5 33.505 41.5 30.505 41.5 30.495 38.5"/><polygon fill="#b4cbea" points="15.505 44.5 15.505 47.5 12.505 47.5 12.495 44.5"/><polygon fill="#b4cbea" points="21.505 44.5 21.505 47.5 18.505 47.5 18.495 44.5"/><polygon fill="#b4cbea" points="27.505 44.5 27.505 47.5 24.505 47.5 24.495 44.5"/><polygon fill="#b4cbea" points="33.505 44.5 33.505 47.5 30.505 47.5 30.495 44.5"/><polygon fill="#b4cbea" points="15.505 50.5 15.505 53.5 12.505 53.5 12.495 50.5"/><polygon fill="#b4cbea" points="33.505 50.5 33.505 53.5 30.505 53.5 30.495 50.5"/><polygon fill="#b4cbea" points="15.505 56.5 15.505 59.5 12.505 59.5 12.495 56.5"/><polygon fill="#b4cbea" points="33.505 56.5 33.505 59.5 30.505 59.5 30.495 56.5"/><polygon fill="#b4cbea" points="30.505 23.5 33.505 23.5 33.505 20.5 33.495 20.5 30.505 23.49"/><rect width="12" height="3" x="39.495" y="26.5" fill="#dbe7f6"/><polygon fill="#b4cbea" points="44.347 29.5 51.495 29.5 51.495 26.5 47.347 26.5"/><rect width="21" height="3" x="12.495" y="14.5" fill="#f4f8f8"/><polygon fill="#dbe7f6" points="22.982 17.5 33.495 17.5 33.495 14.5 25.982 14.5"/><path fill="#4574ba" d="M23.5,12.188c-0.086,0-0.173-0.022-0.25-0.067l-4.5-2.598C18.596,9.435,18.5,9.27,18.5,9.091V3.895      c0-0.179,0.096-0.344,0.25-0.433l4.5-2.599c0.154-0.09,0.346-0.09,0.5,0l4.5,2.599c0.154,0.089,0.25,0.254,0.25,0.433v5.196      c0,0.179-0.096,0.344-0.25,0.433l-4.5,2.598C23.673,12.166,23.586,12.188,23.5,12.188z M19.5,8.802l4,2.31l4-2.31V4.184      l-4-2.311l-4,2.311V8.802z"/><path fill="#4574ba" d="M23.5 12.179c-.276 0-.5-.224-.5-.5v-1.383c0-.276.224-.5.5-.5s.5.224.5.5v1.383C24 11.955 23.776 12.179 23.5 12.179zM20.505 5.287c-.085 0-.171-.021-.25-.067l-1.492-.861c-.239-.138-.321-.443-.183-.683.138-.238.444-.321.683-.183l1.492.861c.239.138.321.443.183.683C20.846 5.197 20.677 5.287 20.505 5.287zM26.467 5.287c-.172 0-.341-.09-.433-.25-.139-.239-.057-.545.183-.683l1.492-.861c.238-.14.545-.057.683.183.139.239.057.545-.183.683L26.717 5.22C26.638 5.266 26.552 5.287 26.467 5.287zM23.5 4.997c-.276 0-.5-.224-.5-.5v-.5c0-.276.224-.5.5-.5s.5.224.5.5v.5C24 4.773 23.776 4.997 23.5 4.997zM23.497 9.303c-.276 0-.5-.224-.5-.5V8.097c0-.276.224-.5.5-.5s.5.224.5.5v.706C23.997 9.079 23.773 9.303 23.497 9.303z"/><path fill="#4574ba" d="M23.837,6.89h-0.649c-0.693,0-1.258-0.562-1.258-1.251s0.564-1.25,1.258-1.25h1.378      c0.276,0,0.5,0.224,0.5,0.5s-0.224,0.5-0.5,0.5h-1.378c-0.143,0-0.258,0.112-0.258,0.25c0,0.139,0.115,0.251,0.258,0.251h0.649      c0.276,0,0.5,0.224,0.5,0.5S24.113,6.89,23.837,6.89z"/><path fill="#4574ba" d="M23.817 8.386H22.43c-.276 0-.5-.224-.5-.5s.224-.5.5-.5h1.388c.137 0 .248-.111.248-.248S23.954 6.89 23.817 6.89H23.39c-.276 0-.5-.224-.5-.5s.224-.5.5-.5h.428c.688 0 1.248.56 1.248 1.248S24.506 8.386 23.817 8.386zM36.5 63h-27C9.224 63 9 62.776 9 62.5v-45C9 17.224 9.224 17 9.5 17h27c.276 0 .5.224.5.5v45C37 62.776 36.776 63 36.5 63zM10 62h26V18H10V62z"/><path fill="#4574ba" d="M54.5 63h-18c-.276 0-.5-.224-.5-.5v-33c0-.276.224-.5.5-.5h18c.276 0 .5.224.5.5v33C55 62.776 54.776 63 54.5 63zM37 62h17V30H37V62zM33.5 18h-21c-.276 0-.5-.224-.5-.5v-3c0-.276.224-.5.5-.5h21c.276 0 .5.224.5.5v3C34 17.776 33.776 18 33.5 18zM13 17h20v-2H13V17z"/><path fill="#4574ba" d="M51.5 30h-12c-.276 0-.5-.224-.5-.5v-3c0-.276.224-.5.5-.5h12c.276 0 .5.224.5.5v3C52 29.776 51.776 30 51.5 30zM40 29h11v-2H40V29zM26.521 15h-6c-.276 0-.5-.224-.5-.5V9.969c0-.276.224-.5.5-.5s.5.224.5.5V14h5V9.969c0-.276.224-.5.5-.5s.5.224.5.5V14.5C27.021 14.776 26.797 15 26.521 15zM15.521 24h-3c-.276 0-.5-.224-.5-.5s.224-.5.5-.5h2.5v-2.5c0-.276.224-.5.5-.5s.5.224.5.5v3C16.021 23.776 15.797 24 15.521 24zM21.521 24h-3c-.276 0-.5-.224-.5-.5s.224-.5.5-.5h2.5v-2.5c0-.276.224-.5.5-.5s.5.224.5.5v3C22.021 23.776 21.797 24 21.521 24zM27.521 24h-3c-.276 0-.5-.224-.5-.5s.224-.5.5-.5h2.5v-2.5c0-.276.224-.5.5-.5s.5.224.5.5v3C28.021 23.776 27.797 24 27.521 24zM41.521 35h-2c-.276 0-.5-.224-.5-.5s.224-.5.5-.5h1.5v-1.5c0-.276.224-.5.5-.5s.5.224.5.5v2C42.021 34.776 41.797 35 41.521 35zM46.521 35h-2c-.276 0-.5-.224-.5-.5s.224-.5.5-.5h1.5v-1.5c0-.276.224-.5.5-.5s.5.224.5.5v2C47.021 34.776 46.797 35 46.521 35zM51.521 35h-2c-.276 0-.5-.224-.5-.5s.224-.5.5-.5h1.5v-1.5c0-.276.224-.5.5-.5s.5.224.5.5v2C52.021 34.776 51.797 35 51.521 35zM41.521 40h-2c-.276 0-.5-.224-.5-.5s.224-.5.5-.5h1.5v-1.5c0-.276.224-.5.5-.5s.5.224.5.5v2C42.021 39.776 41.797 40 41.521 40zM46.521 40h-2c-.276 0-.5-.224-.5-.5s.224-.5.5-.5h1.5v-1.5c0-.276.224-.5.5-.5s.5.224.5.5v2C47.021 39.776 46.797 40 46.521 40zM51.521 40h-2c-.276 0-.5-.224-.5-.5s.224-.5.5-.5h1.5v-1.5c0-.276.224-.5.5-.5s.5.224.5.5v2C52.021 39.776 51.797 40 51.521 40zM41.521 45h-2c-.276 0-.5-.224-.5-.5s.224-.5.5-.5h1.5v-1.5c0-.276.224-.5.5-.5s.5.224.5.5v2C42.021 44.776 41.797 45 41.521 45zM46.521 45h-2c-.276 0-.5-.224-.5-.5s.224-.5.5-.5h1.5v-1.5c0-.276.224-.5.5-.5s.5.224.5.5v2C47.021 44.776 46.797 45 46.521 45zM51.521 45h-2c-.276 0-.5-.224-.5-.5s.224-.5.5-.5h1.5v-1.5c0-.276.224-.5.5-.5s.5.224.5.5v2C52.021 44.776 51.797 45 51.521 45zM41.521 50h-2c-.276 0-.5-.224-.5-.5s.224-.5.5-.5h1.5v-1.5c0-.276.224-.5.5-.5s.5.224.5.5v2C42.021 49.776 41.797 50 41.521 50zM46.521 50h-2c-.276 0-.5-.224-.5-.5s.224-.5.5-.5h1.5v-1.5c0-.276.224-.5.5-.5s.5.224.5.5v2C47.021 49.776 46.797 50 46.521 50zM51.521 50h-2c-.276 0-.5-.224-.5-.5s.224-.5.5-.5h1.5v-1.5c0-.276.224-.5.5-.5s.5.224.5.5v2C52.021 49.776 51.797 50 51.521 50zM41.521 55h-2c-.276 0-.5-.224-.5-.5s.224-.5.5-.5h1.5v-1.5c0-.276.224-.5.5-.5s.5.224.5.5v2C42.021 54.776 41.797 55 41.521 55zM46.521 55h-2c-.276 0-.5-.224-.5-.5s.224-.5.5-.5h1.5v-1.5c0-.276.224-.5.5-.5s.5.224.5.5v2C47.021 54.776 46.797 55 46.521 55zM51.521 55h-2c-.276 0-.5-.224-.5-.5s.224-.5.5-.5h1.5v-1.5c0-.276.224-.5.5-.5s.5.224.5.5v2C52.021 54.776 51.797 55 51.521 55zM41.521 60h-2c-.276 0-.5-.224-.5-.5s.224-.5.5-.5h1.5v-1.5c0-.276.224-.5.5-.5s.5.224.5.5v2C42.021 59.776 41.797 60 41.521 60zM46.521 60h-2c-.276 0-.5-.224-.5-.5s.224-.5.5-.5h1.5v-1.5c0-.276.224-.5.5-.5s.5.224.5.5v2C47.021 59.776 46.797 60 46.521 60zM51.521 60h-2c-.276 0-.5-.224-.5-.5s.224-.5.5-.5h1.5v-1.5c0-.276.224-.5.5-.5s.5.224.5.5v2C52.021 59.776 51.797 60 51.521 60zM33.521 24h-3c-.276 0-.5-.224-.5-.5s.224-.5.5-.5h2.5v-2.5c0-.276.224-.5.5-.5s.5.224.5.5v3C34.021 23.776 33.797 24 33.521 24zM15.521 30h-3c-.276 0-.5-.224-.5-.5s.224-.5.5-.5h2.5v-2.5c0-.276.224-.5.5-.5s.5.224.5.5v3C16.021 29.776 15.797 30 15.521 30zM21.521 30h-3c-.276 0-.5-.224-.5-.5s.224-.5.5-.5h2.5v-2.5c0-.276.224-.5.5-.5s.5.224.5.5v3C22.021 29.776 21.797 30 21.521 30zM27.521 30h-3c-.276 0-.5-.224-.5-.5s.224-.5.5-.5h2.5v-2.5c0-.276.224-.5.5-.5s.5.224.5.5v3C28.021 29.776 27.797 30 27.521 30zM33.521 30h-3c-.276 0-.5-.224-.5-.5s.224-.5.5-.5h2.5v-2.5c0-.276.224-.5.5-.5s.5.224.5.5v3C34.021 29.776 33.797 30 33.521 30zM15.521 36h-3c-.276 0-.5-.224-.5-.5s.224-.5.5-.5h2.5v-2.5c0-.276.224-.5.5-.5s.5.224.5.5v3C16.021 35.776 15.797 36 15.521 36zM21.521 36h-3c-.276 0-.5-.224-.5-.5s.224-.5.5-.5h2.5v-2.5c0-.276.224-.5.5-.5s.5.224.5.5v3C22.021 35.776 21.797 36 21.521 36zM27.521 36h-3c-.276 0-.5-.224-.5-.5s.224-.5.5-.5h2.5v-2.5c0-.276.224-.5.5-.5s.5.224.5.5v3C28.021 35.776 27.797 36 27.521 36zM33.521 36h-3c-.276 0-.5-.224-.5-.5s.224-.5.5-.5h2.5v-2.5c0-.276.224-.5.5-.5s.5.224.5.5v3C34.021 35.776 33.797 36 33.521 36zM15.521 42h-3c-.276 0-.5-.224-.5-.5s.224-.5.5-.5h2.5v-2.5c0-.276.224-.5.5-.5s.5.224.5.5v3C16.021 41.776 15.797 42 15.521 42zM21.521 42h-3c-.276 0-.5-.224-.5-.5s.224-.5.5-.5h2.5v-2.5c0-.276.224-.5.5-.5s.5.224.5.5v3C22.021 41.776 21.797 42 21.521 42zM27.521 42h-3c-.276 0-.5-.224-.5-.5s.224-.5.5-.5h2.5v-2.5c0-.276.224-.5.5-.5s.5.224.5.5v3C28.021 41.776 27.797 42 27.521 42zM33.521 42h-3c-.276 0-.5-.224-.5-.5s.224-.5.5-.5h2.5v-2.5c0-.276.224-.5.5-.5s.5.224.5.5v3C34.021 41.776 33.797 42 33.521 42zM15.521 48h-3c-.276 0-.5-.224-.5-.5s.224-.5.5-.5h2.5v-2.5c0-.276.224-.5.5-.5s.5.224.5.5v3C16.021 47.776 15.797 48 15.521 48zM21.521 48h-3c-.276 0-.5-.224-.5-.5s.224-.5.5-.5h2.5v-2.5c0-.276.224-.5.5-.5s.5.224.5.5v3C22.021 47.776 21.797 48 21.521 48zM27.521 48h-3c-.276 0-.5-.224-.5-.5s.224-.5.5-.5h2.5v-2.5c0-.276.224-.5.5-.5s.5.224.5.5v3C28.021 47.776 27.797 48 27.521 48zM33.521 48h-3c-.276 0-.5-.224-.5-.5s.224-.5.5-.5h2.5v-2.5c0-.276.224-.5.5-.5s.5.224.5.5v3C34.021 47.776 33.797 48 33.521 48zM15.521 54h-3c-.276 0-.5-.224-.5-.5s.224-.5.5-.5h2.5v-2.5c0-.276.224-.5.5-.5s.5.224.5.5v3C16.021 53.776 15.797 54 15.521 54zM33.521 54.204h-3c-.276 0-.5-.224-.5-.5s.224-.5.5-.5h2.5v-2.5c0-.276.224-.5.5-.5s.5.224.5.5v3C34.021 53.98 33.797 54.204 33.521 54.204zM15.521 60h-3c-.276 0-.5-.224-.5-.5s.224-.5.5-.5h2.5v-2.5c0-.276.224-.5.5-.5s.5.224.5.5v3C16.021 59.776 15.797 60 15.521 60zM33.521 60.204h-3c-.276 0-.5-.224-.5-.5s.224-.5.5-.5h2.5v-2.5c0-.276.224-.5.5-.5s.5.224.5.5v3C34.021 59.98 33.797 60.204 33.521 60.204zM27.5 63h-9c-.276 0-.5-.224-.5-.5v-12c0-.276.224-.5.5-.5h9c.276 0 .5.224.5.5v12C28 62.776 27.776 63 27.5 63zM19 62h8V51h-8V62z"/><path fill="#4574ba" d="M23.021,63c-0.276,0-0.5-0.224-0.5-0.5v-12c0-0.276,0.224-0.5,0.5-0.5s0.5,0.224,0.5,0.5v12     C23.521,62.776,23.297,63,23.021,63z"/></svg>