<svg xmlns="http://www.w3.org/2000/svg" width="26" height="26"><g transform="translate(0 -1026.362)"><circle cx="37.045" cy="28.409" r="12.5" fill="#239fdb" fill-rule="evenodd" transform="matrix(1.04 0 0 1.04 -25.527 1009.817)"/><path style="line-height:normal;text-indent:0;text-align:start;text-decoration-line:none;text-decoration-style:solid;text-decoration-color:#000;text-transform:none;block-progression:tb;isolation:auto;mix-blend-mode:normal" fill="#0b5ecd" d="M14.871 25.848a13 13 0 0 0 .711-.108 13 13 0 0 0 1.26-.32 13 13 0 0 0 1.22-.445 13 13 0 0 0 1.17-.567 13 13 0 0 0 1.108-.68 13 13 0 0 0 1.035-.785 13 13 0 0 0 .951-.886 13 13 0 0 0 .858-.977 13 13 0 0 0 .755-1.057 13 13 0 0 0 .647-1.127 13 13 0 0 0 .531-1.185 13 13 0 0 0 .408-1.234 13 13 0 0 0 .246-1.098l-5.785-5.785-.158.125-.71-.711H6.892l5.957 5.959a.5.5 0 0 1-.149-.08L6.016 9.59v7.402l8.855 8.856z" color="#000" font-family="sans-serif" font-weight="400" transform="translate(0 1026.362)"/><path style="line-height:normal;text-indent:0;text-align:start;text-decoration-line:none;text-decoration-style:solid;text-decoration-color:#000;text-transform:none;block-progression:tb;isolation:auto;mix-blend-mode:normal" fill="#fff" d="M1.902 4.016 8.02 8.863l6.109-4.847H1.902zm-.877.582V12h13.971V4.602L8.33 9.895a.5.5 0 0 1-.62 0L1.026 4.598Z" color="#000" font-family="sans-serif" font-weight="400" overflow="visible" transform="translate(4.99 1031.354)"/></g></svg>