<svg xmlns="http://www.w3.org/2000/svg" viewBox="0 0 24 24"><g data-name="Layer 2"><rect width="21.5" height="17.5" x="1.25" y="3.25" fill="#0bf" rx="3.75"/><path fill="#fff" d="M11,17.25a.75.75,0,0,1-.75-.75v-1a2.25,2.25,0,0,0-4.5,0v1a.75.75,0,0,1-1.5,0v-1a3.75,3.75,0,0,1,7.5,0v1A.75.75,0,0,1,11,17.25Z"/><path fill="#fff" d="M8 13.25A3.25 3.25 0 1111.25 10 3.254 3.254 0 018 13.25zm0-5A1.75 1.75 0 109.75 10 1.752 1.752 0 008 8.25zM17 14.75H13.5a.75.75 0 010-1.5H17a.75.75 0 010 1.5zM19 11.75H13.5a.75.75 0 010-1.5H19a.75.75 0 010 1.5z"/><path d="M19,20.75H5A3.754,3.754,0,0,1,1.25,17V7A3.754,3.754,0,0,1,5,3.25H19A3.754,3.754,0,0,1,22.75,7V17A3.754,3.754,0,0,1,19,20.75ZM5,4.75A2.252,2.252,0,0,0,2.75,7V17A2.252,2.252,0,0,0,5,19.25H19A2.252,2.252,0,0,0,21.25,17V7A2.252,2.252,0,0,0,19,4.75Z"/></g></svg>